<?xml version="1.0" encoding="UTF-8"?>
<svg id="uuid-f6671eee-8c95-491f-9e28-5eea6b70b2cb" data-name="Livello 2" xmlns="http://www.w3.org/2000/svg" viewBox="0 0 258.23 373.19">
  <defs>
    <style>
      .uuid-29ba2d7a-85b6-493c-9deb-f67ff18a4b3b {
        fill: "black";
      }
    </style>
  </defs>
  <g id="uuid-bd379794-fd77-4567-8e89-ab7e17ab12f2" data-name="Livello 1">
    <path class="uuid-29ba2d7a-85b6-493c-9deb-f67ff18a4b3b" d="M67.45,0h180.78c5.52,0,10,4.48,10,10v12.62c0,2.65-1.05,5.2-2.93,7.07l-17.18,17.18c-1.88,1.88-2.93,4.42-2.93,7.07v189.59c0,2.65,1.05,5.2,2.93,7.07l16.74,16.74c1.88,1.88,2.93,4.42,2.93,7.07v24.77c0,2.65-1.05,5.2-2.93,7.07l-63.99,63.99c-1.88,1.88-4.42,2.93-7.07,2.93H35.15c-5.52,0-10-4.48-10-10v-147.75c0-2.65-1.05-5.2-2.93-7.07l-19.29-19.29c-1.88-1.88-2.93-4.42-2.93-7.07v-103.92c0-2.65,1.05-5.2,2.93-7.07L54.52,19.42c1.88-1.88,2.93-4.42,2.93-7.07v-2.34c0-5.52,4.48-10,10-10ZM244.23,4H71.45c-5.52,0-10,4.48-10,10h0c0,2.65-1.05,5.2-2.93,7.07L6.93,72.66c-1.88,1.88-2.93,4.42-2.93,7.07v100.61c0,2.65,1.05,5.2,2.93,7.07l19.29,19.29c1.88,1.88,2.93,4.42,2.93,7.07v145.41c0,5.52,4.48,10,10,10h142.98c2.65,0,5.2-1.05,7.07-2.93l61.65-61.65c1.88-1.88,2.93-4.42,2.93-7.07v-21.46c0-2.65-1.05-5.2-2.93-7.07l-16.74-16.74c-1.88-1.88-2.93-4.42-2.93-7.07V52.29c0-2.65,1.05-5.2,2.93-7.07l17.18-17.18c1.88-1.88,2.93-4.42,2.93-7.07v-6.96c0-5.52-4.48-10-10-10Z"/>
    <polygon class="uuid-29ba2d7a-85b6-493c-9deb-f67ff18a4b3b" points="50.77 2 50.77 14.25 .85 64.17 .85 50.51 50.77 2"/>
    <polygon class="uuid-29ba2d7a-85b6-493c-9deb-f67ff18a4b3b" points="247.36 254.25 247.36 45.91 239.45 53.83 239.45 246.02 247.36 254.25"/>
  </g>
</svg>