<?xml version="1.0" encoding="UTF-8"?>
<svg id="uuid-23127a50-da2d-49fe-a0b2-4167c791f658" data-name="Livello 2" xmlns="http://www.w3.org/2000/svg" viewBox="0 0 258.23 373.19">
  <defs>
    <style>
      .uuid-4d8a2af1-fafd-4a4f-b44b-900abc9dd7a3 {
        fill: #fcea10;
      }

      .uuid-8a4d07d0-cf40-49f9-bc33-02f35d8dfcae {
        fill: #2fac66;
      }
    </style>
  </defs>
  <g id="uuid-1e8846b9-be44-4b33-9ab8-73d533acab6e" data-name="Livello 1">
    <g>
      <path class="uuid-4d8a2af1-fafd-4a4f-b44b-900abc9dd7a3" d="M238.12,46.88l17.18-17.19c1.88-1.87,2.93-4.42,2.93-7.07v-12.62c0-5.52-4.48-10-10-10H67.45c-5.53,0-10.01,4.48-10.01,10v2.35c0,2.65-1.05,5.2-2.93,7.07L2.93,71.01c-1.88,1.87-2.93,4.42-2.93,7.07v103.93c0,2.65,1.05,5.19,2.93,7.07l19.29,19.29c1.87,1.87,2.93,4.42,2.93,7.07v147.75c0,5.52,4.47,10,10,10h148.64c2.65,0,5.2-1.05,7.07-2.93l63.99-63.99c1.88-1.88,2.93-4.42,2.93-7.07v-24.78c0-2.65-1.05-5.2-2.93-7.07l-16.73-16.74c-1.88-1.87-2.93-4.42-2.93-7.07V53.95c0-2.65,1.05-5.2,2.93-7.07ZM234.12,252.27l16.73,16.74c1.88,1.87,2.93,4.42,2.93,7.07v21.46c0,2.65-1.05,5.2-2.93,7.07l-61.65,61.65c-1.87,1.88-4.42,2.93-7.07,2.93H39.15c-5.53,0-10-4.48-10-10v-145.41c0-2.65-1.06-5.19-2.93-7.07l-19.29-19.29c-1.88-1.87-2.93-4.42-2.93-7.07v-100.61c0-2.65,1.05-5.2,2.93-7.08L58.51,21.08c.94-.94,1.67-2.04,2.17-3.25.5-1.2.76-2.5.76-3.83,0-5.52,4.48-10,10.01-10h172.78c5.52,0,10,4.48,10,10v6.97c0,2.65-1.05,5.19-2.93,7.07l-17.18,17.18c-1.88,1.88-2.93,4.42-2.93,7.07v192.91c0,2.65,1.05,5.19,2.93,7.07Z"/>
      <path class="uuid-8a4d07d0-cf40-49f9-bc33-02f35d8dfcae" d="M231.19,52.29v192.91c0,2.65,1.05,5.19,2.93,7.07l16.73,16.74c1.88,1.87,2.93,4.42,2.93,7.07v21.46c0,2.65-1.05,5.2-2.93,7.07l-61.65,61.65c-1.87,1.88-4.42,2.93-7.07,2.93H39.15c-5.53,0-10-4.48-10-10v-145.41c0-2.65-1.06-5.19-2.93-7.07l-19.29-19.29c-1.88-1.87-2.93-4.42-2.93-7.07v-100.61c0-2.65,1.05-5.2,2.93-7.08L58.51,21.08c.94-.94,1.67-2.04,2.17-3.25.5-1.2.76-2.5.76-3.83,0-5.52,4.48-10,10.01-10h172.78c5.52,0,10,4.48,10,10v6.97c0,2.65-1.05,5.19-2.93,7.07l-17.18,17.18c-1.88,1.88-2.93,4.42-2.93,7.07Z"/>
    </g>
    <polygon class="uuid-4d8a2af1-fafd-4a4f-b44b-900abc9dd7a3" points="50.76 2 50.76 14.26 .85 64.17 .85 50.51 50.76 2"/>
    <polygon class="uuid-4d8a2af1-fafd-4a4f-b44b-900abc9dd7a3" points="247.36 254.26 247.36 45.92 239.44 53.83 239.44 246.02 247.36 254.26"/>
  </g>
</svg>